<svg xmlns="http://www.w3.org/2000/svg" xmlns:xlink="http://www.w3.org/1999/xlink" width="154.619" height="162.979" viewBox="0 0 154.619 162.979">
  <defs>
    <clipPath id="clip-path">
      <rect id="Rectángulo_2004" data-name="Rectángulo 2004" width="154.619" height="162.979" fill="none"/>
    </clipPath>
  </defs>
  <g id="Grupo_7294" data-name="Grupo 7294" transform="translate(0 0)">
    <g id="Grupo_7293" data-name="Grupo 7293" transform="translate(0 0)" clip-path="url(#clip-path)">
      <path id="Trazado_4040" data-name="Trazado 4040" d="M89.2,57.146l9.879-6.357a4.669,4.669,0,0,0,2.153-4.108l-.272-7a4.707,4.707,0,0,0-3.589-4.368L21.867,16.441a4.749,4.749,0,0,0-5.931,4.551V27.4a4.557,4.557,0,0,0,.147,1.151l18.84,73.25a4.786,4.786,0,0,0,8.6,1.411l7.257-10.956A4.8,4.8,0,0,1,58.6,92.03l18.549,24.661a4.8,4.8,0,0,0,7.189.525L103,98.815l5.958-5.877a4.651,4.651,0,0,0,1.4-3.318V81.088a4.689,4.689,0,0,0-2.172-3.94L89.214,65.015a4.66,4.66,0,0,1-.011-7.869" transform="translate(44.267 44.388)" fill="#9e9a9a"/>
      <path id="Trazado_4041" data-name="Trazado 4041" d="M91.5,34.013,21.262,16.457a3.925,3.925,0,0,0-4.8,4.737l17.8,69.235a3.973,3.973,0,0,0,7.14,1.173l8.9-13.437a3.984,3.984,0,0,1,6.483-.194l19.8,26.322a3.986,3.986,0,0,0,5.969.436L106,81.622a3.858,3.858,0,0,0-.442-5.884L78.858,56.22a3.864,3.864,0,0,1,.2-6.391l13.63-8.778a3.877,3.877,0,0,0-1.19-7.039" transform="translate(45.375 44.498)" fill="#d9d9d9"/>
      <path id="Trazado_4042" data-name="Trazado 4042" d="M6.074,6.055a4.575,4.575,0,0,0,0,6.532L30.536,36.7a4.731,4.731,0,0,0,6.623,0,4.564,4.564,0,0,0,0-6.528L12.7,6.055a4.736,4.736,0,0,0-6.626,0" transform="translate(13.064 12.811)" fill="#d9d9d9"/>
      <path id="Trazado_4043" data-name="Trazado 4043" d="M25.425,4.618a4.685,4.685,0,0,0-9.369,0v34.1a4.685,4.685,0,0,0,9.369,0Z" transform="translate(44.601 -0.001)" fill="#d9d9d9"/>
      <path id="Trazado_4044" data-name="Trazado 4044" d="M46.767,6.055,22.305,30.169a4.571,4.571,0,0,0,0,6.528,4.736,4.736,0,0,0,6.626,0l24.458-24.11a4.568,4.568,0,0,0,0-6.532,4.731,4.731,0,0,0-6.623,0" transform="translate(58.151 12.811)" fill="#d9d9d9"/>
      <path id="Trazado_4045" data-name="Trazado 4045" d="M30.535,22.287,6.073,46.4a4.571,4.571,0,0,0,0,6.528,4.736,4.736,0,0,0,6.626,0L37.157,28.815a4.564,4.564,0,0,0,0-6.528,4.731,4.731,0,0,0-6.623,0" transform="translate(13.061 57.029)" fill="#d9d9d9"/>
      <path id="Trazado_4046" data-name="Trazado 4046" d="M4.685,16.056a4.618,4.618,0,1,0,0,9.236H39.278a4.618,4.618,0,1,0,0-9.236Z" transform="translate(0 43.738)" fill="#d9d9d9"/>
    </g>
  </g>
</svg>
