<svg xmlns="http://www.w3.org/2000/svg" xmlns:xlink="http://www.w3.org/1999/xlink" width="35.166" height="20.002" viewBox="0 0 35.166 20.002"><defs><style>.a{fill:#d9d9d9;}.b{clip-path:url(#a);}</style><clipPath id="a"><rect class="a" width="35.166" height="20.002"/></clipPath></defs><g class="b" transform="translate(0 0)"><path class="a" d="M49.2,32.912v7.673a.481.481,0,0,1-.09.274c-.608.929-4.264,1.644-8.678,1.644s-8.07-.715-8.678-1.644a.481.481,0,0,1-.09-.274V32.912c0-.7,1.7-1.307,4.242-1.644a37.529,37.529,0,0,1,9.054,0c2.54.337,4.242.945,4.242,1.644" transform="translate(-22.988 -22.501)"/><path class="a" d="M35.166,6.79V6.8a.635.635,0,0,1-.011.126.384.384,0,0,1-.016.077s0,0,0,.005a.551.551,0,0,1-.019.063.821.821,0,0,1-.049.112.038.038,0,0,1-.014.022A.879.879,0,0,1,35,7.295a.753.753,0,0,1-.121.126.427.427,0,0,1-.055.044.593.593,0,0,1-.1.06.788.788,0,0,1-.11.049l-.041.014-8.361,2.984V7.623c0-.7-1.7-1.307-4.242-1.644a35.049,35.049,0,0,0-4.527-.274,35.049,35.049,0,0,0-4.527.274c-2.543.337-4.242.945-4.242,1.644v2.853L.581,7.585.548,7.574a.021.021,0,0,1-.011-.005.7.7,0,0,1-.1-.044L.419,7.516a.579.579,0,0,1-.085-.058.548.548,0,0,1-.112-.1.517.517,0,0,1-.069-.085.585.585,0,0,1-.074-.126A.4.4,0,0,1,.047,7.07a.791.791,0,0,1-.038-.159A.738.738,0,0,1,0,6.8a.5.5,0,0,1,.011-.112.766.766,0,0,1,.019-.11c.005-.019.014-.036.019-.055.014-.036.027-.069.044-.1A.3.3,0,0,1,.132,6.36a.179.179,0,0,1,.027-.041.339.339,0,0,1,.049-.06A.144.144,0,0,1,.241,6.22.449.449,0,0,1,.31,6.163a.051.051,0,0,1,.019-.016A.378.378,0,0,1,.4,6.1a.477.477,0,0,1,.049-.03.867.867,0,0,1,.126-.052L17.307.049a.793.793,0,0,1,.551,0L34.618,6.026a.142.142,0,0,1,.036.016.474.474,0,0,1,.085.038.543.543,0,0,1,.093.06.9.9,0,0,1,.195.2.553.553,0,0,1,.049.088.372.372,0,0,1,.036.082.135.135,0,0,1,.016.047.052.052,0,0,1,.005.022.543.543,0,0,1,.022.09c0,.005,0,.008,0,.011a.5.5,0,0,1,.011.11" transform="translate(0 0)"/><path class="a" d="M31.76,43.572h-.09V43.3a.481.481,0,0,0,.09.274" transform="translate(-22.992 -31.433)"/><path class="a" d="M95.43,43.3v.274h-.09a.481.481,0,0,0,.09-.274" transform="translate(-69.214 -31.433)"/></g></svg>
