<svg xmlns="http://www.w3.org/2000/svg" width="80.726" height="50" viewBox="0 0 80.726 50">
  <g id="Grupo_6689" data-name="Grupo 6689" transform="translate(-349 -129)">
    <g id="Grupo_23" data-name="Grupo 23" transform="translate(349 129)">
      <path id="Trazado_3797" data-name="Trazado 3797" d="M245.973,129.665c-.548.122-.793.306-.852.857v14.042h.792V131.5a1.218,1.218,0,0,1,1.22-1.169l.059.064v-.064h2.078v-5.367H232.6v5.367h1.772a1.278,1.278,0,0,1,1.282,1.169v13.062h.671V130.522c-.061-.552-.305-.735-.853-.857h-2.135v-4.148h15.137v4.148Z" transform="translate(-184.861 -124.904)" fill="#09843b"/>
      <path id="Trazado_3798" data-name="Trazado 3798" d="M250.033,132.576l.242.063h1.65v-2.93H238.069v2.93h1.221l.243-.063a1.5,1.5,0,0,1,1.526,1.467v14.042h7.511l.058-13.739-.058-.3a1.524,1.524,0,0,1,1.463-1.467" transform="translate(-188.921 -128.426)" fill="#09843b"/>
      <path id="Trazado_3799" data-name="Trazado 3799" d="M173.446,206.407a6.964,6.964,0,0,0-2.724,1.23l-1.28,1.1a1.5,1.5,0,0,0-1.221-.853,3.958,3.958,0,0,0-2.2,1.219,1.174,1.174,0,0,1-.5-.26,5.332,5.332,0,0,0-.381-.383c-.062-.044-.389,0-.656.36a7.038,7.038,0,0,0-.783,2.056c-.044.469-1.024,1.178-1.28,1.137-.341-.057-.55-.668-.182-1.138s1.09-1.388,1.281-1.634a1.441,1.441,0,0,0,.367-.747c.054-.334-.258-.721-.465-.663s-.755.175-.755.175a.927.927,0,0,0-.67-.246,2.125,2.125,0,0,0-1.024.3c-.528.279-1.389.714-2.092,1.157a20.417,20.417,0,0,0-2.87,2.018,2.1,2.1,0,0,1-.953.575c-.23.033-.461-.039-.415-.532a3.094,3.094,0,0,1,.817-1.2c.357-.364,1.1-1.1,1.016-1.541a.506.506,0,0,0-.839-.319c-.208.155-.937,1.374-1.334,1.86s-1.014,1.215-1.4,1.1c-.326-.095-.4-.3-.284-.521s1.379-1.54,1.665-1.859.617-.756.3-1-.733-.036-1.2.359a11.408,11.408,0,0,0-2.074,2.656,2.116,2.116,0,0,1-1.71,1.034c-.549-.059-.82-.053-.918-.673a4.434,4.434,0,0,1,1.163-2.746s4.062-2.41,4.395-2.748c1.089-1.109.108-1.933-.42-1.947a3.049,3.049,0,0,0-1.678.812,17.663,17.663,0,0,0-2.91,3.089l-1.22-.125a1.978,1.978,0,0,0-1.221-.79,3.671,3.671,0,0,0-2.806,2.257c-.623,1.262-.915,4.062.851,3.966a3.6,3.6,0,0,0,2.2-1.28l.057.425a1.22,1.22,0,0,0,1.342.855c.592-.062,2.078-.423,2.078-.423a3.542,3.542,0,0,0,1.037.547.559.559,0,0,0,.548-.124c.186-.122,1.286-.855,1.286-.855a1.139,1.139,0,0,0,.122.308,1.079,1.079,0,0,0,.913.486,2.6,2.6,0,0,0,1.588-.673c.427-.467,2.048-1.948,2.2-2.074s.215-.171.183.551.355,2.135,1.732,1.767a3.24,3.24,0,0,0,1.135-.668c0,.571.966.878,1.406.668a2.679,2.679,0,0,0,1.6-2.1c.061-.616.478-1,.718-.948.379.09.2.476.015.829-.072.136-.291.564-.465.86s-.429.781-.651,1.116c-.4.6-.4,1.268-.182,1.406s.978-.431,1.252-.708a7.973,7.973,0,0,0,1.009-2.341c.058-.377.026-.73.12-.794a2.168,2.168,0,0,1,1.04-.368c.528-.054,1.036.672,1.036.672-2.137,2.378-2.915,3.992-2.55,4.724.371.77,1.8,1.093,2.491,1.172.661.073.739.238.547.446a.655.655,0,0,1-.911.106,18.289,18.289,0,0,0-5.084-1.316c-1.669-.212-3.925.3-4.507.913l.246-1.892h-.425c-1.288,12.272-7.817,18.378-19.478,18.556-11.234,0-17.462-6.224-18.56-18.556h-.611a25.544,25.544,0,0,0,1.951,9.282,13.892,13.892,0,0,0-3.346.91c-.994.4-2.9,1.685-3.123,3-.347,2.082.9,4.123,8.044,4.241a28.821,28.821,0,0,0,5.146-.581,21.668,21.668,0,0,0,10.379,2.32c7.509,0,13-2.438,16.484-7.507a12.375,12.375,0,0,0,2.221.4,4.247,4.247,0,0,0,3.514-1.627c6.7,1.451,8.765,2.01,12.406,3.917,2.99,1.711,4.643,2.614,5.072,2.98a24.058,24.058,0,0,0-10.773-7.027,45.82,45.82,0,0,0-5.967-1.638c.058-1.344-.378-2.167-1.38-2.538a9.743,9.743,0,0,0-2.345-.392l-.306.666.548-2.5a1.439,1.439,0,0,1,.613-.369,9.144,9.144,0,0,1,4.149-.917c1.54.166,4.048,1.322,5.555,1.286a4.325,4.325,0,0,0,2.808-1.231.728.728,0,0,0-.137-1.172,8.4,8.4,0,0,0-2.024-.958,17.11,17.11,0,0,1-1.88-.321c-.63-.835.853-2.248,1.378-2.755s2.287-2.148,2.934-2.215a11.952,11.952,0,0,0,3.427-.655c1.321-.507,1.123-2.711-1.218-2.424m-.227,1.15a2.119,2.119,0,0,1,1.046.022c.3.119.315.645-1.163.851-.684.1-1.954.244-1.954.244a3.5,3.5,0,0,1,2.071-1.117M153.347,204.8c.367-.247.991.151.464.461-.322.191-2.014,1.1-2.014,1.1a6.23,6.23,0,0,1,1.551-1.558m-6.79,4.244a1.986,1.986,0,0,0,.232.062c.248.247-.536,1.84-.853,2.075s-.429.492-.858.43-.431-.576-.3-1.1a5.347,5.347,0,0,1,1.04-2.076,1.278,1.278,0,0,0,.742.61m14.766-.244c.791-.289.872.414.782.585a4.673,4.673,0,0,1-.417.759,5.95,5.95,0,0,1-1.224,1.037c-.228.149-.415.294-.549.247s-.328-.579-.121-1.284c.179-.6,1.241-1.237,1.53-1.343m-2.5,13.16c.706.209.945.8.537,1.041s-1.613.261-2.065.636c.429-1.858,1.127-1.8,1.528-1.677m-37.71,3.613c.291-.027,1.075.016,1.075.016a18.218,18.218,0,0,0,2.685,3.234,11.31,11.31,0,0,1-3.26.4,7.345,7.345,0,0,1-3.49-.477c-1.077-.5-.886-1.144-.122-1.852a4.956,4.956,0,0,1,3.112-1.317" transform="translate(-97.337 -183.401)" fill="#09843b"/>
      <path id="Trazado_3800" data-name="Trazado 3800" d="M185.682,178.147c-.256.033-.59.08-.59.08.61-1.036.514-1.653.058-2.014a2.882,2.882,0,0,0-1.708-.424,2.939,2.939,0,0,0-.793.056c.243-1.342.067-1.9-.629-1.93s-2.411,1.138-3.463,2.114c-1.075,1-1.747,2.093-1.442,1.923a15.53,15.53,0,0,1,2.482-1.436,11.957,11.957,0,0,1-.457,2.34,18.271,18.271,0,0,1-1.617,3.585c-.426.692-3.79,4.911-4.946,6.41a.889.889,0,0,0,.73,1.461c.671.066,1.4-.55,2.015-1.522s6.127-9.8,6.387-10.123.516-.552.925-.356-.018,1.9-.288,2.236-2.766,3.41-2.995,3.786-.342.991,0,1.034a.656.656,0,0,0,.734-.24c.182-.253,2.933-3.562,3.358-4.028s1.052-1.379,1.585-1.221-.24,1.958-.546,2.5l-2.5,4.454c-3.236,1.955-5.252,3.966-5.983,6.048a19.822,19.822,0,0,0-5.373,1.462l-.3-2.257h-1.037c.425,3.6,1.646,6.1,3.6,7.693a9.96,9.96,0,0,0,6.471,2.259,10.209,10.209,0,0,0,6.413-1.952c2.014-1.285,3.171-4.03,3.538-8h-.853l-.063.857-.059-.061c-.285-.447-4.214-.783-5.206-.789-.972-.007-1.939.054-1.939.054s5.245-10.3,5.618-11.172c.433-1.017.87-3.085-1.117-2.829m-7.37,13.45c.134-.169,1.772-2.014,2.26-1.952,0,0-.9,1.609-1.344,2.261-.276.405-.765.741-1.037.548s-.012-.684.121-.857m5.166,5.725a.943.943,0,0,1,1.181.413c.216.391.077,1.035-.974.947a6.048,6.048,0,0,1-1.585-.493,4.571,4.571,0,0,1,1.379-.867m1-.959c0-.243,1.727-.606,2.195-.671a4.6,4.6,0,0,1,1.161.058,8.5,8.5,0,0,1-1.22,2.5,1.587,1.587,0,0,0-1.772-1.889Zm-4.7-2.018,4.15.063c-1.552.477-3.446,2.153-3.988,2.268-1.052.226-3.469.308-6.3.513-1.634.121-2.288-1.4-.068-2.26a9.106,9.106,0,0,1,1.988-.4c-.059,1.041.29,1.832,1.651,1.837a3.216,3.216,0,0,0,2.563-2.018m6.043,4.884c-1.587,1.649-3.785,2.38-6.593,2.38a10.663,10.663,0,0,1-3.785-.669l.062-.062,4.883-2.076a4.844,4.844,0,0,0,2.947,1.268,4.684,4.684,0,0,0,1.939-.413,1.5,1.5,0,0,0,.547-.427m-12.576.185s-1.443-1.442-.76-1.275a8.239,8.239,0,0,0,1.141.244,6.233,6.233,0,0,1,1.221.04c.346.062.658.2.717.378Z" transform="translate(-137.835 -161.255)" fill="#09843b"/>
      <path id="Trazado_3801" data-name="Trazado 3801" d="M271.31,212.815c-.075-.152-.379-.184-.5-.137a2.776,2.776,0,0,0-.526.329.756.756,0,0,0-.208.741.409.409,0,0,0,.411.272,1.745,1.745,0,0,0,.613-.426c.27-.29.323-.543.208-.779" transform="translate(-212.673 -190.026)" fill="#09843b"/>
      <path id="Trazado_3802" data-name="Trazado 3802" d="M174,244.519h-7.817c-.49,4.394-1.832,7.327-4.153,8.731a11.456,11.456,0,0,1-6.471,1.833,10.807,10.807,0,0,1-6.9-2.381c-2.136-1.65-3.357-4.461-3.786-8.183h-7.632c1.035,11.906,7.082,17.887,17.95,17.949,11.294-.125,17.583-6.106,18.806-17.949" transform="translate(-114.046 -213.687)" fill="#09843b"/>
      <path id="Trazado_3803" data-name="Trazado 3803" d="M137.246,130.1v-5.372H120.637V130.1h1.834a1.173,1.173,0,0,1,1.22,1.162v13.065h.673v-13.8a.891.891,0,0,0-.855-.917h-2.137v-4.149h15.14v4.149h-2.5a.885.885,0,0,0-.853.917v13.8h.793V131.257a1.225,1.225,0,0,1,1.281-1.162Z" transform="translate(-101.712 -124.724)" fill="#09843b"/>
      <path id="Trazado_3804" data-name="Trazado 3804" d="M138.063,132.866h1.894v-2.929H126.1v2.929h1.467a1.554,1.554,0,0,1,1.526,1.529v13.8H136.6v-13.8a1.591,1.591,0,0,1,1.466-1.529" transform="translate(-105.765 -128.595)" fill="#09843b"/>
      <path id="Trazado_3805" data-name="Trazado 3805" d="M69.45,181.64a5.8,5.8,0,0,0-1.159.245.714.714,0,0,0-.67-.309c-.784-.007-2.193,1.141-2.992,2.26l-1.65,2.323s-.169-.334-.3-.368-.223.084-.246.241-.114,1.829-.671,1.714c-.387-.077-.593-.883-.182-1.773a11.627,11.627,0,0,1,2.688-2.945.772.772,0,0,0-.208-1.382,1.326,1.326,0,0,0-1.381.667c-1.9,1.467-3.113,2.078-3.786,1.834,1.1-2.934.465-4.513-1.524-4.4a20.761,20.761,0,0,0-2.992.552,6.665,6.665,0,0,1-2.138.365c-1.684.02-1.214-1.607.973-2.626a28.229,28.229,0,0,1,4.826-1.525s3.322-.723,4.493-1.116c2.423-.814,1.946-2.492.657-2.828s-4.051.892-4.6,1.377a26.938,26.938,0,0,1,3.114-.79c.955-.118,1.133.652.488.852s-3.709,1-5.122,1.419a29.986,29.986,0,0,0-6.233,2.612c-1.282.861-2.3,2.477-2.136,3.36a1.881,1.881,0,0,0,1.963,1.443c1.548-.049,5.894-1.729,6.707-1.749s1.1.827.854,1.708a8.263,8.263,0,0,1-.674,1.649c-2.082,1.127-4.163,2.337-4.895,2.835a39.713,39.713,0,0,0-3.957,2.97,4,4,0,0,0-1.132,5,2,2,0,0,0,1.854.783c.876.005,2.7-.957,4.163-2.429a25.619,25.619,0,0,0,3.172-4.882l1.832-3.541s-.025.066.55.06A5.1,5.1,0,0,0,60.413,185c-1.361,3.622-.795,4.5,1.028,3.968a2.752,2.752,0,0,0,1.66-1.341c0,.181.533.57.817.627a.923.923,0,0,0,.742-.165c.611-.369.76-.775.456-.771-.836.01-.68-1.2.426-2.627a7.933,7.933,0,0,1,1.834-1.584,6.54,6.54,0,0,0-1.344,3.053c-.186,1.112.221,1.693.931,1.613.518-.058.7-.943.474-1.613-.1-.292.344-1.154,1.1-2.013a4.856,4.856,0,0,1,.673-.613,2.956,2.956,0,0,1-.244.79,5.346,5.346,0,0,0-.7,2.636c.04.583.338,1.028.764.969.428,0,.827-.282.674-.791-.327-1.086,0-2.2,1.038-3.6.548-.608.529-1.03.333-1.257a.907.907,0,0,0-.762-.268.926.926,0,0,0-.855-.368m-15.2,5.918a21.711,21.711,0,0,1,2.242-1.013,24.083,24.083,0,0,1-2.425,3.519c-1.042,1.094-2.685,2.622-3.661,2.622-.795,0-.722-1.022.18-2.194a13.282,13.282,0,0,1,3.663-2.935" transform="translate(-47.106 -160.211)" fill="#09843b"/>
      <path id="Trazado_3806" data-name="Trazado 3806" d="M157.1,204.926c-.078.087-.5.91-.425.976s.329-.041.488-.124l.913-.487c.063-.236-.778-.6-.976-.365" transform="translate(-128.469 -184.228)" fill="#09843b"/>
      <path id="Trazado_3807" data-name="Trazado 3807" d="M141.478,209.831c-1.081.007-2.242,1.177-2.75,2.2-.73,1.468-.662,3.49.586,3.825,1.281.345,2.577-.992,3.2-2.183a4.271,4.271,0,0,0,.492-1.949s.863-.3,1.1-.366.347.175.276.509a16.976,16.976,0,0,1-1.693,2.674c-.335.44-.891,1.442-.17,1.393.478-.03.768-.66.98-.976s2.169-3.255,2.44-3.527a2.813,2.813,0,0,1,.733-.625c.642-.165.709.179.305.671a9.326,9.326,0,0,0-1.8,3.41c-.071.727.215,1.046.638.987a1.378,1.378,0,0,0,.476-.159c.816-.388,1.036-.782.745-.695-.467.137-.615-.555-.368-1.04s1.577-2.446,1.831-2.808.123-1-.721-1.335a2.56,2.56,0,0,0-2.207.421c-.024-.194-.609-.55-.853-.3a2.722,2.722,0,0,1-1.346.6,3.348,3.348,0,0,1-.671,0s-.14-.743-1.221-.734m-.063,2.317a.115.115,0,0,0,.125-.06c.243.245-.062,1.162-.588,1.844-.367.474-.748.769-1.049.712-.422-.082-.437-.587-.318-1.092a6.112,6.112,0,0,1,.978-2.076,8.145,8.145,0,0,0,.852.671" transform="translate(-114.799 -187.851)" fill="#09843b"/>
      <path id="Trazado_3808" data-name="Trazado 3808" d="M114.059,200.955c.021-.135-.231-.263-.525-.422-.25-.136-.456.2-.5.278s-.238.473-.3.639-.015.5.184.55a1,1,0,0,0,.732-.244,2.145,2.145,0,0,0,.4-.8" transform="translate(-95.83 -180.998)" fill="#09843b"/>
    </g>
  </g>
</svg>
