<svg id="Grupo_7186" data-name="Grupo 7186" xmlns="http://www.w3.org/2000/svg" xmlns:xlink="http://www.w3.org/1999/xlink" width="28.401" height="23.98" viewBox="0 0 28.401 23.98">
  <defs>
    <clipPath id="clip-path">
      <rect id="Rectángulo_1899" data-name="Rectángulo 1899" width="28.401" height="23.981" transform="translate(0 0)" fill="#9c9c9c"/>
    </clipPath>
  </defs>
  <g id="Grupo_7183" data-name="Grupo 7183" clip-path="url(#clip-path)">
    <path id="Trazado_4027" data-name="Trazado 4027" d="M4.2,14.315v4.32a.462.462,0,0,0,.241.407l8.946,4.882a.461.461,0,0,0,.444,0l8.945-4.882a.463.463,0,0,0,.242-.407v-4.32a.464.464,0,0,0-.686-.407l-8.5,4.639a.461.461,0,0,1-.444,0l-8.5-4.639a.463.463,0,0,0-.685.407M13.1.132.562,6.97a1.077,1.077,0,0,0,0,1.891L13.1,15.7a1.075,1.075,0,0,0,1.032,0L24.12,10.25a1.077,1.077,0,0,1,1.593.945v6.4a1.078,1.078,0,0,0,1.077,1.078h.534A1.078,1.078,0,0,0,28.4,17.591V8.555a1.079,1.079,0,0,0-.562-.946L14.129.132a1.08,1.08,0,0,0-1.032,0" fill="#9c9c9c"/>
  </g>
</svg>
