<svg xmlns="http://www.w3.org/2000/svg" width="8.7" height="12.42" viewBox="0 0 8.7 12.42">
  <path id="Trazado_4050" data-name="Trazado 4050" d="M837.927-36.157a4.273,4.273,0,0,0-1.9-2.24,1.866,1.866,0,0,0-.31-.17,4.07,4.07,0,0,0-1.2-.36,3.6,3.6,0,0,0-.66-.06h-.01a4.273,4.273,0,0,0-2.48.78,4.329,4.329,0,0,0-1.86,3.56v.01a10.033,10.033,0,0,0,1.86,4.78,27.585,27.585,0,0,0,2.48,3.29s.26-.29.67-.78c.33-.41.75-.95,1.2-1.58.1-.14.21-.3.31-.45a14.726,14.726,0,0,0,1.93-3.76,5.172,5.172,0,0,0,.25-1.5A4.273,4.273,0,0,0,837.927-36.157Zm-2.52,1.52a1.552,1.552,0,0,1-.89,1.4,1.5,1.5,0,0,1-.67.15,1.422,1.422,0,0,1-.36-.05,1.544,1.544,0,0,1-1.19-1.5,1.555,1.555,0,0,1,1.21-1.52,1.267,1.267,0,0,1,.34-.04,1.5,1.5,0,0,1,.67.15,1.552,1.552,0,0,1,.89,1.4Z" transform="translate(-829.507 38.987)" fill="#999"/>
</svg>
