<svg id="Grupo_7194" data-name="Grupo 7194" xmlns="http://www.w3.org/2000/svg" xmlns:xlink="http://www.w3.org/1999/xlink" width="19.702" height="13.463" viewBox="0 0 19.702 13.463">
  <defs>
    <clipPath id="clip-path">
      <rect id="Rectángulo_1902" data-name="Rectángulo 1902" width="19.702" height="13.463" fill="#999"/>
    </clipPath>
  </defs>
  <g id="Grupo_7192" data-name="Grupo 7192" transform="translate(0 0)" clip-path="url(#clip-path)">
    <path id="Trazado_4028" data-name="Trazado 4028" d="M9.036,1.761c-.056-.093-.112-.186-.177-.28A4.118,4.118,0,0,0,8.5,1.044,1.353,1.353,0,0,0,8.254.82a3.309,3.309,0,0,0-4.36,0c-.084.075-.168.149-.242.224a4.118,4.118,0,0,0-.363.438c-.065.093-.121.186-.177.28a3.432,3.432,0,0,0-.4,1.6,3.364,3.364,0,1,0,6.727,0,3.432,3.432,0,0,0-.4-1.6" transform="translate(-0.185 0)" fill="#999"/>
    <path id="Trazado_4029" data-name="Trazado 4029" d="M19.613,4.355,17,8.462a1.13,1.13,0,0,0-.04,1.062,1.646,1.646,0,0,1-.052,1.409q-.584,1.112-1.22,2.19a1.184,1.184,0,0,1-1.018.577H4.006a.182.182,0,0,0-.14,0H.913A.909.909,0,0,1,0,12.788,4.573,4.573,0,0,1,4.556,8.231H7.221a4.573,4.573,0,0,1,3.224,1.332,4.461,4.461,0,0,1,.857,1.211l.012.015a1.178,1.178,0,0,0,1.985-.213l.591-1.23a1.1,1.1,0,0,1,.286-.386,2.3,2.3,0,0,1,1.041-.478,1.1,1.1,0,0,0,.718-.506l2.7-4.227a.578.578,0,0,1,.8-.186V3.554a.585.585,0,0,1,.177.8" transform="translate(0 -0.237)" fill="#999"/>
  </g>
</svg>
