<svg id="Grupo_7103" data-name="Grupo 7103" xmlns="http://www.w3.org/2000/svg" xmlns:xlink="http://www.w3.org/1999/xlink" width="23.798" height="25.213" viewBox="0 0 23.798 25.213">
  <defs>
    <clipPath id="clip-path">
      <rect id="Rectángulo_1826" data-name="Rectángulo 1826" width="23.797" height="25.212" transform="translate(0 0)" fill="#9c9c9c"/>
    </clipPath>
  </defs>
  <g id="Grupo_7102" data-name="Grupo 7102" transform="translate(0 0)" clip-path="url(#clip-path)">
    <path id="Trazado_3998" data-name="Trazado 3998" d="M21.145,5.829H4.067A3.068,3.068,0,0,0,1,8.9V25.974a3.068,3.068,0,0,0,3.067,3.067H16.651L18.335,27.6h-.021l4.458-3.82V23.8l1.438-1.23V8.9a3.068,3.068,0,0,0-3.067-3.067m.331,17.212-3.6,3.082a.379.379,0,0,1-.665-.246l.085-2.135a1.747,1.747,0,0,1,1.913-1.64l2.121.246a.379.379,0,0,1,.144.694m-1.963-2.22a3.083,3.083,0,0,0-3.553,3.041L15.951,27.6H5.028a2.585,2.585,0,0,1-2.587-2.587V9.854A2.585,2.585,0,0,1,5.028,7.27H20.187a2.587,2.587,0,0,1,2.587,2.584V21.322Z" transform="translate(-0.707 -4.121)" fill="#9c9c9c"/>
    <path id="Trazado_3999" data-name="Trazado 3999" d="M16.052,28.626H3.36A3.364,3.364,0,0,1,0,25.266V8.188a3.364,3.364,0,0,1,3.36-3.36H20.438a3.364,3.364,0,0,1,3.36,3.36V22l-2.024,1.731v-.023L18.4,26.6h0l-.582.515ZM3.36,5.414A2.777,2.777,0,0,0,.586,8.188V25.266A2.777,2.777,0,0,0,3.36,28.04H15.836l6.523-5.6v.024l.852-.729V8.188a2.777,2.777,0,0,0-2.774-2.774ZM15.536,27.185H4.321a2.883,2.883,0,0,1-2.879-2.879V9.146A2.882,2.882,0,0,1,4.321,6.269H19.48a2.882,2.882,0,0,1,2.879,2.877V20.955l-3.6-.553a2.791,2.791,0,0,0-3.216,2.752ZM4.321,6.855A2.3,2.3,0,0,0,2.027,9.146V24.305A2.3,2.3,0,0,0,4.321,26.6H14.952l.008-3.445a3.377,3.377,0,0,1,3.891-3.33l2.923.449V9.146A2.3,2.3,0,0,0,19.48,6.855ZM16.864,25.828a.672.672,0,0,1-.292-.066.632.632,0,0,1-.359-.6l.085-2.137a2.04,2.04,0,0,1,2.239-1.92l2.121.246a.634.634,0,0,1,.543.447.732.732,0,0,1-.243.761l-3.6,3.081a.765.765,0,0,1-.5.19m1.456-4.152a1.44,1.44,0,0,0-.931.353,1.424,1.424,0,0,0-.505,1.017L16.8,25.181c0,.036.012.046.026.053a.147.147,0,0,0,.155-.04l3.6-3.083a.15.15,0,0,0,.063-.146c0-.014-.012-.03-.051-.034l-2.12-.246a1.356,1.356,0,0,0-.15-.008" transform="translate(0 -3.414)" fill="#9c9c9c"/>
    <path id="Trazado_4000" data-name="Trazado 4000" d="M17.366,5.473h0a1.1,1.1,0,0,1-1.1-1.1V1.1a1.1,1.1,0,1,1,2.206,0V4.37a1.1,1.1,0,0,1-1.1,1.1" transform="translate(-11.499 0)" fill="#9c9c9c"/>
    <path id="Trazado_4001" data-name="Trazado 4001" d="M37.958,5.473h0a1.1,1.1,0,0,1-1.1-1.1V1.1a1.1,1.1,0,1,1,2.206,0V4.37a1.1,1.1,0,0,1-1.1,1.1" transform="translate(-26.059 0)" fill="#9c9c9c"/>
    <path id="Trazado_4002" data-name="Trazado 4002" d="M58.6,5.473h0a1.1,1.1,0,0,1-1.1-1.1V1.1a1.1,1.1,0,1,1,2.206,0V4.37a1.1,1.1,0,0,1-1.1,1.1" transform="translate(-40.654 0)" fill="#9c9c9c"/>
    <path id="Trazado_4003" data-name="Trazado 4003" d="M31.188,33.443h0a.63.63,0,1,1,.63-.63.63.63,0,0,1-.63.63" transform="translate(-21.607 -22.755)" fill="#9c9c9c"/>
    <path id="Trazado_4004" data-name="Trazado 4004" d="M40.208,33.443h0a.63.63,0,1,1,.63-.63.63.63,0,0,1-.63.63" transform="translate(-27.985 -22.755)" fill="#9c9c9c"/>
    <path id="Trazado_4005" data-name="Trazado 4005" d="M48.36,33.443h0a.63.63,0,1,1,.63-.63.63.63,0,0,1-.63.63" transform="translate(-33.749 -22.755)" fill="#9c9c9c"/>
    <path id="Trazado_4006" data-name="Trazado 4006" d="M55.974,33.443h0a.63.63,0,1,1,.63-.63.63.63,0,0,1-.63.63" transform="translate(-39.132 -22.755)" fill="#9c9c9c"/>
    <path id="Trazado_4007" data-name="Trazado 4007" d="M62.913,33.443h0a.63.63,0,1,1,.63-.63.63.63,0,0,1-.63.63" transform="translate(-44.039 -22.755)" fill="#9c9c9c"/>
    <path id="Trazado_4008" data-name="Trazado 4008" d="M20.121,42.409h0a.63.63,0,1,1,.63-.63.63.63,0,0,1-.63.63" transform="translate(-13.782 -29.095)" fill="#9c9c9c"/>
    <path id="Trazado_4009" data-name="Trazado 4009" d="M32.255,42.409h0a.63.63,0,1,1,.63-.63.63.63,0,0,1-.63.63" transform="translate(-22.361 -29.095)" fill="#9c9c9c"/>
    <path id="Trazado_4010" data-name="Trazado 4010" d="M40.408,42.409h0a.63.63,0,1,1,.63-.63.63.63,0,0,1-.63.63" transform="translate(-28.126 -29.095)" fill="#9c9c9c"/>
    <path id="Trazado_4011" data-name="Trazado 4011" d="M48.022,42.409h0a.63.63,0,1,1,.63-.63.63.63,0,0,1-.63.63" transform="translate(-33.51 -29.095)" fill="#9c9c9c"/>
    <path id="Trazado_4012" data-name="Trazado 4012" d="M54.96,42.409h0a.63.63,0,1,1,.63-.63.63.63,0,0,1-.63.63" transform="translate(-38.415 -29.095)" fill="#9c9c9c"/>
    <path id="Trazado_4013" data-name="Trazado 4013" d="M20.121,52.81h0a.63.63,0,1,1,.63-.63.63.63,0,0,1-.63.63" transform="translate(-13.782 -36.449)" fill="#9c9c9c"/>
    <path id="Trazado_4014" data-name="Trazado 4014" d="M32.255,52.81h0a.63.63,0,1,1,.63-.63.63.63,0,0,1-.63.63" transform="translate(-22.361 -36.449)" fill="#9c9c9c"/>
    <path id="Trazado_4015" data-name="Trazado 4015" d="M40.408,52.81h0a.63.63,0,1,1,.63-.63.63.63,0,0,1-.63.63" transform="translate(-28.126 -36.449)" fill="#9c9c9c"/>
    <path id="Trazado_4016" data-name="Trazado 4016" d="M48.022,52.81h0a.63.63,0,1,1,.63-.63.63.63,0,0,1-.63.63" transform="translate(-33.51 -36.449)" fill="#9c9c9c"/>
    <path id="Trazado_4017" data-name="Trazado 4017" d="M54.96,52.81h0a.63.63,0,1,1,.63-.63.63.63,0,0,1-.63.63" transform="translate(-38.415 -36.449)" fill="#9c9c9c"/>
  </g>
</svg>
