<svg id="Grupo_7195" data-name="Grupo 7195" xmlns="http://www.w3.org/2000/svg" width="22.902" height="15.107" viewBox="0 0 22.902 15.107">
  <path id="user-plus-solid" d="M3.692,4.22a2.11,2.11,0,1,0-2.11-2.11A2.11,2.11,0,0,0,3.692,4.22Zm.836.791H2.856A2.857,2.857,0,0,0,0,7.867a.571.571,0,0,0,.571.572H6.813a.571.571,0,0,0,.571-.572A2.857,2.857,0,0,0,4.528,5.011Z" transform="translate(7.758 4.156)" fill="#999"/>
  <g id="Rectángulo_1900" data-name="Rectángulo 1900" transform="translate(22.902) rotate(90)" fill="none" stroke="#999" stroke-width="2">
    <rect width="15.108" height="22.902" rx="4" stroke="none"/>
    <rect x="1" y="1" width="13.108" height="20.902" rx="3" fill="none"/>
  </g>
</svg>
